<?xml version="1.0" encoding="UTF-8"?>
<svg width="154px" height="154px" viewBox="0 0 154 154" version="1.1" xmlns="http://www.w3.org/2000/svg" xmlns:xlink="http://www.w3.org/1999/xlink">
    <!-- Generator: Sketch 51.3 (57544) - http://www.bohemiancoding.com/sketch -->
    <title>Shape</title>
    <desc>Created with Sketch.</desc>
    <defs></defs>
    <g id="Page-1" stroke="none" stroke-width="1" fill="none" fill-rule="evenodd">
        <g id="admin---user-þattaka-alert" transform="translate(-303.000000, -387.000000)" fill="#000000">
            <g id="noun_Close_2057785" transform="translate(303.000000, 387.000000)">
                <path d="M1.73284201,10.2450484 C-0.577614003,7.89405804 -0.577614003,4.08383234 1.73284201,1.73284201 C4.08383234,-0.577614003 7.89405804,-0.577614003 10.2450484,1.73284201 L77.0050668,68.4928604 L143.724551,1.73284201 C146.075541,-0.577614003 149.885767,-0.577614003 152.236757,1.73284201 C154.587748,4.08383234 154.587748,7.89405804 152.236757,10.2450484 L85.4767388,77.0050668 L152.236757,143.724551 C154.587748,146.075541 154.587748,149.885767 152.236757,152.236757 C149.885767,154.587748 146.075541,154.587748 143.724551,152.236757 L77.0050668,85.4767388 L10.2450484,152.236757 C7.89405804,154.587748 4.08383234,154.587748 1.73284201,152.236757 C-0.577614003,149.885767 -0.577614003,146.075541 1.73284201,143.724551 L68.4928604,77.0050668 L1.73284201,10.2450484 Z" id="Shape"></path>
            </g>
        </g>
    </g>
</svg>