<?xml version="1.0" encoding="UTF-8"?>
<svg width="15px" height="15px" viewBox="0 0 15 15" version="1.1" xmlns="http://www.w3.org/2000/svg" xmlns:xlink="http://www.w3.org/1999/xlink">
    <!-- Generator: Sketch 51.3 (57544) - http://www.bohemiancoding.com/sketch -->
    <title>noun_edit_1218875</title>
    <desc>Created with Sketch.</desc>
    <defs></defs>
    <g id="Page-1" stroke="none" stroke-width="1" fill="none" fill-rule="evenodd">
        <g id="admin---trainer" transform="translate(-888.000000, -250.000000)" fill="#393735" fill-rule="nonzero">
            <g id="Group-2" transform="translate(888.000000, 250.000000)">
                <g id="noun_edit_1218875">
                    <path d="M13.0092984,12.9345516 C13.0092984,13.6230344 12.476754,14.158521 11.7920541,14.158521 L2.05409975,14.158521 C1.36939983,14.158521 0.836855452,13.6230344 0.836855452,12.9345516 L0.836855452,3.21929452 C0.836855452,2.53081173 1.36939983,1.99532512 2.05409975,1.99532512 L7.75993238,1.99532512 L7.75993238,1.15384615 L2.05409975,1.15384615 C0.912933221,1.15384615 0,2.0718232 0,3.14279643 L0,12.9345516 C0,14.0820229 0.912933221,15 2.05409975,15 L11.7920541,15 C12.9332206,15 13.8461538,14.0820229 13.8461538,12.9345516 L13.8461538,7.27369316 L13.0092984,7.27369316 L13.0092984,12.9345516 Z" id="Shape"></path>
                    <path d="M14.5986622,0.477453581 C13.9565217,-0.159151194 12.8327759,-0.159151194 12.1906355,0.477453581 L6.4916388,6.12732095 C6.41137124,6.20689655 6.41137124,6.28647215 6.41137124,6.28647215 L5.76923077,8.67374005 C5.76923077,8.83289125 5.76923077,8.99204244 5.84949833,9.07161804 C5.92976589,9.15119363 6.01003344,9.23076923 6.17056856,9.23076923 C6.17056856,9.23076923 6.25083612,9.23076923 6.25083612,9.23076923 L8.65886288,8.59416446 C8.73913043,8.59416446 8.81939799,8.51458886 8.81939799,8.51458886 L14.5183946,2.86472149 C14.8394649,2.5464191 15,2.14854111 15,1.67108753 C15,1.19363395 14.9197324,0.795755968 14.5986622,0.477453581 Z M8.33779264,7.87798408 L6.73244147,8.27586207 L7.13377926,6.68435013 L11.8695652,1.98938992 L13.0735786,3.18302387 L8.33779264,7.87798408 Z M14.0367893,2.22811671 L13.7157191,2.5464191 L12.5117057,1.35278515 L12.8327759,1.03448276 C13.1538462,0.716180371 13.7157191,0.716180371 14.0367893,1.03448276 C14.1973244,1.19363395 14.277592,1.43236074 14.277592,1.67108753 C14.277592,1.90981432 14.1973244,2.06896552 14.0367893,2.22811671 Z" id="Shape"></path>
                </g>
            </g>
        </g>
    </g>
</svg>