<?xml version="1.0" encoding="UTF-8"?>
<svg width="15px" height="18px" viewBox="0 0 15 18" version="1.1" xmlns="http://www.w3.org/2000/svg" xmlns:xlink="http://www.w3.org/1999/xlink">
    <!-- Generator: Sketch 51.3 (57544) - http://www.bohemiancoding.com/sketch -->
    <title>Shape</title>
    <desc>Created with Sketch.</desc>
    <defs></defs>
    <g id="Page-1" stroke="none" stroke-width="1" fill="none" fill-rule="evenodd">
        <g id="admin---trainer" transform="translate(-888.000000, -273.000000)" fill="#393735" fill-rule="nonzero">
            <g id="Group-2" transform="translate(888.000000, 250.000000)">
                <g id="noun_Trash_621274" transform="translate(0.000000, 23.000000)">
                    <path d="M9.73997874,13.6700141 L9.73997874,5.13343552 C9.73997874,4.75722576 9.43410264,4.45230741 9.05671121,4.45230741 C8.67931977,4.45230741 8.37344367,4.75722576 8.37344367,5.13343552 L8.37344367,13.6700141 C8.37344367,14.0464509 8.67931977,14.3511422 9.05671121,14.3511422 C9.43410264,14.3511422 9.73997874,14.0464509 9.73997874,13.6700141 Z M6.62632858,13.6700141 L6.62632858,5.13343552 C6.62632858,4.75722576 6.32045247,4.45230741 5.94306104,4.45230741 C5.5656696,4.45230741 5.2597935,4.75722576 5.2597935,5.13343552 L5.2597935,13.6700141 C5.2597935,14.0464509 5.5656696,14.3511422 5.94306104,14.3511422 C6.32045247,14.3511422 6.62632858,14.0464509 6.62632858,13.6700141 Z M12.7998785,4.45230741 C12.4224871,4.45230741 12.116611,4.75722576 12.116611,5.13343552 L12.116611,15.4438988 C12.116611,15.7202097 11.8913605,15.9454361 11.6144094,15.9454361 L3.38627391,15.9454361 C3.10886729,15.9454361 2.88316125,15.7202097 2.88316125,15.4438988 L2.88316125,5.13343552 C2.88316125,4.75722576 2.57728515,4.45230741 2.19989371,4.45230741 C1.82250228,4.45230741 1.51662618,4.75722576 1.51662618,5.13343552 L1.51662618,15.4438988 C1.51662618,16.471267 2.35545096,17.3076923 3.38627391,17.3076923 L11.6141816,17.3076923 C12.644549,17.3076923 13.4829183,16.471267 13.4829183,15.4438988 L13.4829183,5.13343552 C13.4831461,4.75699872 13.17727,4.45230741 12.7998785,4.45230741 Z M14.3167325,2.33013926 L11.2233526,2.33013926 L11.2233526,0.68112811 C11.2233526,0.30491835 10.9174765,0 10.540085,0 L4.45991497,0 C4.08252353,0 3.77664743,0.30491835 3.77664743,0.68112811 L3.77664743,2.33013926 L0.683267537,2.33013926 C0.305876101,2.33013926 0,2.63505761 0,3.01126737 C0,3.38747713 0.305876101,3.69239548 0.683267537,3.69239548 L14.3167325,3.69239548 C14.6941239,3.69239548 15,3.38747713 15,3.01126737 C15,2.63505761 14.6941239,2.33013926 14.3167325,2.33013926 Z M9.85681749,2.33013926 L5.14318251,2.33013926 L5.14318251,1.36225622 L9.85658974,1.36225622 L9.85658974,2.33013926 L9.85681749,2.33013926 Z" id="Shape"></path>
                </g>
            </g>
        </g>
    </g>
</svg>